<svg width="22" height="10" viewBox="0 0 22 10" fill="none" xmlns="http://www.w3.org/2000/svg">
<g clip-path="url(#clip0)">
<path d="M6.37732 3.44828C6.37857 3.39119 6.37922 3.33371 6.37922 3.27586C6.37922 1.46666 5.76168 0 4.9999 0C4.23813 0 3.62059 1.46666 3.62059 3.27586C3.62059 3.33371 3.62123 3.39119 3.62248 3.44828H6.37732Z" fill="#5F5F5F"/>
<path d="M6.72413 8.96551H3.27585V5.19188C3.27585 4.83441 3.29809 4.4773 3.34243 4.12262L3.42938 3.42691C3.44016 3.34064 3.51352 3.27588 3.60046 3.27588H6.39948C6.48643 3.27588 6.55977 3.34062 6.57056 3.42691L6.65751 4.12262C6.70184 4.47732 6.72409 4.83443 6.72409 5.19188V8.96551H6.72413Z" fill="#676767"/>
<path d="M6.55171 10H3.44827C3.35306 10 3.27585 9.92279 3.27585 9.82757C3.27585 9.73236 3.35306 9.65515 3.44827 9.65515H6.55173C6.64694 9.65515 6.72415 9.73236 6.72415 9.82757C6.72413 9.92279 6.64692 10 6.55171 10Z" fill="#5F5F5F"/>
<path d="M6.3792 9.31036H3.62059V9.65519H6.3792V9.31036Z" fill="#9C9C9C"/>
<path d="M4.99999 8.96552H3.27585L3.62067 9.31036H4.99999H6.37931L6.72413 8.96552H4.99999Z" fill="#878787"/>
<path d="M3.62819 2.93103C3.62319 3.04441 3.62044 3.15935 3.62044 3.27585H6.37904C6.37904 3.15935 6.37629 3.04441 6.37129 2.93103H3.62819Z" fill="#9C9C9C"/>
</g>
<g clip-path="url(#clip1)">
<path d="M12.3773 3.44828C12.3786 3.39119 12.3792 3.33371 12.3792 3.27586C12.3792 1.46666 11.7617 0 10.9999 0C10.2381 0 9.62059 1.46666 9.62059 3.27586C9.62059 3.33371 9.62123 3.39119 9.62248 3.44828H12.3773Z" fill="#5F5F5F"/>
<path d="M12.7242 8.96551H9.27588V5.19188C9.27588 4.83441 9.29812 4.4773 9.34246 4.12262L9.42941 3.42691C9.4402 3.34064 9.51355 3.27588 9.60049 3.27588H12.3995C12.4865 3.27588 12.5598 3.34062 12.5706 3.42691L12.6575 4.12262C12.7019 4.47732 12.7241 4.83443 12.7241 5.19188V8.96551H12.7242Z" fill="#676767"/>
<path d="M12.5517 10H9.4483C9.35309 10 9.27588 9.92279 9.27588 9.82757C9.27588 9.73236 9.35309 9.65515 9.4483 9.65515H12.5518C12.647 9.65515 12.7242 9.73236 12.7242 9.82757C12.7242 9.92279 12.647 10 12.5517 10Z" fill="#5F5F5F"/>
<path d="M12.3792 9.31036H9.62059V9.65519H12.3792V9.31036Z" fill="#9C9C9C"/>
<path d="M11 8.96552H9.27585L9.62067 9.31036H11H12.3793L12.7241 8.96552H11Z" fill="#878787"/>
<path d="M9.62819 2.93103C9.62319 3.04441 9.62044 3.15935 9.62044 3.27585H12.379C12.379 3.15935 12.3763 3.04441 12.3713 2.93103H9.62819Z" fill="#9C9C9C"/>
</g>
<g clip-path="url(#clip2)">
<path d="M18.3773 3.44828C18.3786 3.39119 18.3792 3.33371 18.3792 3.27586C18.3792 1.46666 17.7617 0 16.9999 0C16.2381 0 15.6206 1.46666 15.6206 3.27586C15.6206 3.33371 15.6212 3.39119 15.6225 3.44828H18.3773Z" fill="#5F5F5F"/>
<path d="M18.7241 8.96551H15.2758V5.19188C15.2758 4.83441 15.2981 4.4773 15.3424 4.12262L15.4294 3.42691C15.4402 3.34064 15.5135 3.27588 15.6005 3.27588H18.3995C18.4864 3.27588 18.5598 3.34062 18.5706 3.42691L18.6575 4.12262C18.7018 4.47732 18.7241 4.83443 18.7241 5.19188V8.96551H18.7241Z" fill="#676767"/>
<path d="M18.5517 10H15.4483C15.3531 10 15.2758 9.92279 15.2758 9.82757C15.2758 9.73236 15.3531 9.65515 15.4483 9.65515H18.5517C18.6469 9.65515 18.7242 9.73236 18.7242 9.82757C18.7241 9.92279 18.6469 10 18.5517 10Z" fill="#5F5F5F"/>
<path d="M18.3792 9.31036H15.6206V9.65519H18.3792V9.31036Z" fill="#9C9C9C"/>
<path d="M17 8.96552H15.2758L15.6207 9.31036H17H18.3793L18.7241 8.96552H17Z" fill="#878787"/>
<path d="M15.6282 2.93103C15.6232 3.04441 15.6204 3.15935 15.6204 3.27585H18.379C18.379 3.15935 18.3763 3.04441 18.3713 2.93103H15.6282Z" fill="#9C9C9C"/>
</g>
<defs>
<clipPath id="clip0">
<rect width="10" height="10" fill="white"/>
</clipPath>
<clipPath id="clip1">
<rect width="10" height="10" fill="white" transform="translate(6)"/>
</clipPath>
<clipPath id="clip2">
<rect width="10" height="10" fill="white" transform="translate(12)"/>
</clipPath>
</defs>
</svg>
