<svg width="23" height="23" viewBox="0 0 23 23" fill="none" xmlns="http://www.w3.org/2000/svg">
<g clip-path="url(#clip0)">
<path d="M11.8247 0.606055C11.7873 0.23581 11.4565 -0.0339903 11.0865 0.00347442C10.7163 0.0409392 10.4465 0.371474 10.4839 0.741719C11.0774 6.60662 11.1405 6.55383 10.9311 7.19119C10.665 8.00112 10.0134 8.61233 9.18833 8.82625C8.88344 8.90531 8.67397 9.18504 8.68395 9.4999L9.04292 20.808C9.03797 21.2744 8.65699 21.6523 8.18945 21.6523C7.72186 21.6523 7.34087 21.2743 7.33598 20.8079L7.69495 9.4999C7.70497 9.18504 7.49549 8.90531 7.19057 8.82625C6.05108 8.53084 5.21495 7.46031 5.34581 6.16845L5.89502 0.741674C5.93249 0.371429 5.66273 0.0408943 5.29249 0.0034295C4.9217 -0.0337208 4.59166 0.235765 4.5542 0.60601L4.00507 6.03279C3.82584 7.80374 4.84304 9.33521 6.33225 9.95603L5.98873 20.7775C5.95355 21.9204 6.91461 23 8.18954 23C9.4593 23 10.4257 21.9257 10.3903 20.7775L10.0468 9.95603C11.5338 9.33611 12.5534 7.80661 12.374 6.03283L11.8247 0.606055Z" fill="#E4C08F"/>
<path d="M8.18945 6.37897C8.56159 6.37897 8.86328 6.07727 8.86328 5.70514V0.673889C8.86328 0.301756 8.56159 6.10352e-05 8.18945 6.10352e-05C7.81732 6.10352e-05 7.51562 0.301756 7.51562 0.673889V5.70514C7.51562 6.07727 7.81732 6.37897 8.18945 6.37897Z" fill="#E4C08F"/>
<path d="M18.3418 6.10352e-05C15.741 6.10352e-05 13.625 2.11601 13.625 4.71685V15.1387C13.625 15.5108 13.9267 15.8125 14.2988 15.8125H14.9727V20.9785C14.9727 22.0932 15.8795 23 16.9941 23C18.1088 23 19.0156 22.0932 19.0156 20.9785V0.673888C19.0156 0.301756 18.7139 6.10352e-05 18.3418 6.10352e-05ZM17.668 20.9785C17.668 21.3501 17.3657 21.6524 16.9941 21.6524C16.6226 21.6524 16.3203 21.3501 16.3203 20.9785V15.8125H17.668V20.9785ZM17.668 14.4649C17.3583 14.4649 15.2632 14.4649 14.9727 14.4649V4.71685C14.9727 3.08983 16.1321 1.72847 17.668 1.41541V14.4649Z" fill="#E4C08F"/>
</g>
<defs>
<clipPath id="clip0">
<rect width="23" height="23" fill="white"/>
</clipPath>
</defs>
</svg>
