<svg width="20" height="20" viewBox="0 0 20 20" fill="none" xmlns="http://www.w3.org/2000/svg">
<g clip-path="url(#clip0)">
<path d="M16.3487 10.2972C16.3487 9.89843 16.0438 9.59351 15.645 9.59351C15.2463 9.59351 14.9413 9.89843 14.9413 10.2972C14.9413 13.0415 12.713 15.2698 9.96868 15.2698C7.22435 15.2698 4.99604 13.0415 4.99604 10.2972C4.99604 9.89843 4.69111 9.59351 4.29236 9.59351C3.89361 9.59351 3.58868 9.89843 3.58868 10.2972C3.58868 13.5576 6.0281 16.3019 9.26501 16.6537V18.5302H6.70832C6.30957 18.5302 6.00464 18.8351 6.00464 19.2339C6.00464 19.6326 6.30957 19.9376 6.70832 19.9376H13.229C13.6278 19.9376 13.9327 19.6326 13.9327 19.2339C13.9327 18.8351 13.6278 18.5302 13.229 18.5302H10.6724V16.6537C13.9093 16.3019 16.3487 13.5576 16.3487 10.2972Z" fill="#A59279"/>
<path d="M9.96862 0C7.81067 0 6.05148 1.75919 6.05148 3.91713V10.2737C6.05148 12.4551 7.81067 14.1908 9.96862 14.2143C12.1266 14.2143 13.8857 12.4551 13.8857 10.2971V3.91713C13.8857 1.75919 12.1266 0 9.96862 0Z" fill="#E4C08F"/>
<path d="M16.3489 10.2972C16.3489 9.89843 16.0439 9.59351 15.6452 9.59351C15.2464 9.59351 14.9415 9.89843 14.9415 10.2972C14.9415 13.0415 12.7132 15.2698 9.96887 15.2698C7.22453 15.2698 4.99622 13.0415 4.99622 10.2972C4.99622 9.89843 4.69129 9.59351 4.29254 9.59351C3.89379 9.59351 3.58887 9.89843 3.58887 10.2972C3.58887 13.5576 6.02828 16.3019 9.26519 16.6537V18.5302H6.7085C6.30975 18.5302 6.00482 18.8351 6.00482 19.2339C6.00482 19.6326 6.30975 19.9376 6.7085 19.9376H13.2292C13.628 19.9376 13.9329 19.6326 13.9329 19.2339C13.9329 18.8351 13.628 18.5302 13.2292 18.5302H10.6725V16.6537C13.9095 16.3019 16.3489 13.5576 16.3489 10.2972Z" fill="#A59279"/>
<path d="M9.96889 0C7.81095 0 6.05176 1.75919 6.05176 3.91713V10.2737C6.05176 12.4551 7.81095 14.1908 9.96889 14.2143C12.1268 14.2143 13.886 12.4551 13.886 10.2971V3.91713C13.886 1.75919 12.1268 0 9.96889 0Z" fill="#E4C08F"/>
</g>
<defs>
<clipPath id="clip0">
<rect width="19.9375" height="19.9375" fill="white"/>
</clipPath>
</defs>
</svg>
