<svg width="20" height="12" viewBox="0 0 20 12" fill="none" xmlns="http://www.w3.org/2000/svg">
<g clip-path="url(#clip0)">
<path d="M19.0909 11.7273H0.909102C0.409102 11.7273 0 11.3182 0 10.8182V0.818159C0 0.318159 0.409102 -0.0909424 0.909102 -0.0909424H19.0909C19.5909 -0.0909424 20 0.318159 20 0.818159V10.8182C20 11.3182 19.5909 11.7273 19.0909 11.7273Z" fill="#FFE6C4"/>
<path d="M17.3636 11H2.81816C2.81816 9.99996 2 9.1818 1 9.1818V2.81816C2 2.81816 2.81816 2 2.81816 1H17.3636C17.3636 2 18.1818 2.81816 19.1818 2.81816V9.1818C18.1818 9.1818 17.3636 9.99996 17.3636 11Z" fill="#E4C08F"/>
<path d="M9.99989 9.90909C12.0082 9.90909 13.6363 8.07753 13.6363 5.81819C13.6363 3.55885 12.0082 1.72729 9.99989 1.72729C7.99158 1.72729 6.36353 3.55885 6.36353 5.81819C6.36353 8.07753 7.99158 9.90909 9.99989 9.90909Z" fill="#FADFBB"/>
<path d="M4.54533 6.72732C5.04741 6.72732 5.45443 6.3203 5.45443 5.81822C5.45443 5.31614 5.04741 4.90912 4.54533 4.90912C4.04325 4.90912 3.63623 5.31614 3.63623 5.81822C3.63623 6.3203 4.04325 6.72732 4.54533 6.72732Z" fill="#FADFBB"/>
<path d="M15.4543 6.72732C15.9564 6.72732 16.3634 6.3203 16.3634 5.81822C16.3634 5.31614 15.9564 4.90912 15.4543 4.90912C14.9522 4.90912 14.5452 5.31614 14.5452 5.81822C14.5452 6.3203 14.9522 6.72732 15.4543 6.72732Z" fill="#FADFBB"/>
<path d="M10.4545 5.36366H9.54537C9.27264 5.36366 9.09084 5.18182 9.09084 4.90913C9.09084 4.63639 9.27268 4.4546 9.54537 4.4546H10.909C11.1817 4.4546 11.3635 4.27276 11.3635 4.00007C11.3635 3.72733 11.1817 3.54553 10.909 3.54553H10.4545C10.4545 3.2728 10.2726 3.091 9.99994 3.091C9.72721 3.091 9.54541 3.27284 9.54541 3.54553C8.77268 3.54553 8.18178 4.13643 8.18178 4.90917C8.18178 5.6819 8.77268 6.2728 9.54541 6.2728H10.4545C10.7272 6.2728 10.909 6.45464 10.909 6.72733C10.909 7.00007 10.7272 7.18186 10.4545 7.18186H9.09088C8.81814 7.18186 8.63635 7.3637 8.63635 7.63639C8.63635 7.90913 8.81818 8.09092 9.09088 8.09092H9.54541C9.54541 8.36366 9.72725 8.54546 9.99994 8.54546C10.2727 8.54546 10.4545 8.36362 10.4545 8.09092C11.2272 8.09092 11.8181 7.50003 11.8181 6.72729C11.8181 5.95456 11.2272 5.36366 10.4545 5.36366Z" fill="#C0A27A"/>
<path d="M10.4545 5.36366H9.54537C9.27264 5.36366 9.09084 5.18182 9.09084 4.90913C9.09084 4.63639 9.27268 4.4546 9.54537 4.4546H10.909C11.1817 4.4546 11.3635 4.27276 11.3635 4.00007C11.3635 3.72733 11.1817 3.54553 10.909 3.54553H10.4545C10.4545 3.2728 10.2726 3.091 9.99994 3.091C9.72721 3.091 9.54541 3.27284 9.54541 3.54553C8.77268 3.54553 8.18178 4.13643 8.18178 4.90917C8.18178 5.6819 8.77268 6.2728 9.54541 6.2728H10.4545C10.7272 6.2728 10.909 6.45464 10.909 6.72733C10.909 7.00007 10.7272 7.18186 10.4545 7.18186H9.09088C8.81814 7.18186 8.63635 7.3637 8.63635 7.63639C8.63635 7.90913 8.81818 8.09092 9.09088 8.09092H9.54541C9.54541 8.36366 9.72725 8.54546 9.99994 8.54546C10.2727 8.54546 10.4545 8.36362 10.4545 8.09092C11.2272 8.09092 11.8181 7.50003 11.8181 6.72729C11.8181 5.95456 11.2272 5.36366 10.4545 5.36366Z" fill="#C0A27A"/>
</g>
<defs>
<clipPath id="clip0">
<rect width="20" height="12" fill="white"/>
</clipPath>
</defs>
</svg>
