<svg width="23" height="23" viewBox="0 0 23 23" fill="none" xmlns="http://www.w3.org/2000/svg">
<path d="M19.1358 0.715332C19.0571 0.557892 18.8209 0.479172 18.5848 0.479172H4.41513C4.17897 0.479172 3.94281 0.557892 3.86409 0.715332C3.70665 0.951493 3.62793 1.10893 3.62793 1.34509L5.75338 19.0571C5.91082 21.0252 7.09162 22.4421 8.50858 22.4421H14.4126C15.8296 22.4421 17.0104 21.0252 17.1678 19.0571L19.372 1.34509C19.372 1.10893 19.2933 0.951493 19.1358 0.715332ZM15.7508 17.7976H7.24906L5.91082 7.32783C6.2257 6.77679 7.09162 5.35983 8.50858 4.80879C9.29579 4.4939 10.1617 4.57262 11.1064 5.04495C13.7828 6.38319 15.9083 6.14703 17.1678 5.67471L15.7508 17.7976ZM17.7189 2.05358L17.4827 3.94286C16.7742 4.33646 14.8062 5.20239 11.8936 3.7067C10.5553 3.07694 9.29579 2.9195 8.03626 3.39182C7.0129 3.7067 6.2257 4.41518 5.67466 5.04495L5.28106 2.05358H17.7189ZM14.4913 20.9464H8.58731C8.11498 20.9464 7.64266 20.3167 7.48522 19.372H15.6721C15.436 20.3167 14.8849 20.9464 14.4913 20.9464Z" fill="#E4C08F"/>
</svg>
