<svg width="50" height="50" viewBox="0 0 50 50" fill="none" xmlns="http://www.w3.org/2000/svg">
<g clip-path="url(#clip0)">
<path d="M45.2936 25.3825L44.3374 24.4039C41.5633 21.5647 40.0354 17.8149 40.0354 13.8453V11.2902C40.5442 11.0245 40.8928 10.4925 40.8928 9.87986V5.86957C40.8928 5.4644 40.5645 5.13591 40.1592 5.13591C39.7539 5.13591 39.4255 5.4644 39.4255 5.86957V9.87986C39.4255 9.94813 39.3701 10.0037 39.3018 10.0037H33.9154C33.8472 10.0037 33.7916 9.94813 33.7916 9.87986V1.59106C33.7916 1.52278 33.8471 1.46732 33.9154 1.46732H39.3018C39.37 1.46732 39.4255 1.52278 39.4255 1.59106V2.74291C39.4255 3.14809 39.7539 3.47657 40.1592 3.47657C40.5645 3.47657 40.8928 3.14809 40.8928 2.74291V1.59106C40.8928 0.713704 40.1791 0 39.3018 0H33.9154C33.203 0 32.5984 0.470716 32.3964 1.11751L31.6491 1.86653C29.8612 3.65881 27.4824 4.64583 24.951 4.64583C22.4196 4.64583 20.0408 3.65881 18.253 1.86653L17.6378 1.24977C17.4811 0.536061 16.8446 0 16.0845 0H10.6982C9.82087 0 9.10717 0.713704 9.10717 1.59106V9.87986C9.10717 10.4925 9.4558 11.0245 9.96457 11.2902V13.8453C9.96457 14.9539 9.84151 16.0653 9.59872 17.1486C9.5101 17.544 9.75885 17.9363 10.1542 18.0248C10.2082 18.037 10.2621 18.0428 10.3153 18.0428C10.6511 18.0428 10.954 17.8107 11.0305 17.4694C11.2969 16.281 11.4319 15.0616 11.4319 13.8453V11.4709H16.0845C16.9618 11.4709 17.6756 10.7572 17.6756 9.87986V5.37548L18.9611 7.07229C20.3943 8.96415 22.5777 10.0493 24.9511 10.0493C27.3245 10.0493 29.508 8.96405 30.9412 7.07229L32.3244 5.24645V9.87986C32.3244 10.7572 33.0382 11.471 33.9155 11.471H38.5682V13.8454C38.5682 16.8577 39.3706 19.7545 40.8724 22.2854V33.0806H36.7324V29.1945C36.7324 28.7893 36.404 28.4608 35.9987 28.4608C35.5935 28.4608 35.2651 28.7893 35.2651 29.1945V33.0806H14.735V24.2371C15.1176 24.3916 15.5349 24.4775 15.9722 24.4775H33.9298C34.4046 24.4775 34.8561 24.3764 35.2648 24.1958V26.0678C35.2648 26.473 35.5932 26.8015 35.9985 26.8015C36.4037 26.8015 36.7321 26.473 36.7321 26.0678V22.9298C37.056 22.4179 37.2443 21.8122 37.2443 21.163V16.5461C37.2443 15.7504 36.597 15.1031 35.8013 15.1031H14.1007C13.3051 15.1031 12.6578 15.7504 12.6578 16.5461V21.163C12.6578 21.875 12.8842 22.5347 13.2678 23.0756V33.0806H9.12771V22.2748C9.44769 21.7324 9.73773 21.1707 9.99617 20.5907C10.1611 20.2205 9.9947 19.7869 9.62464 19.622C9.25439 19.4571 8.82075 19.6234 8.65592 19.9935C7.92402 21.6362 6.91695 23.1201 5.66259 24.4038L4.70638 25.3824C4.57247 25.5194 4.49744 25.7035 4.49744 25.8952V45.7276C4.49744 46.1568 4.71137 46.5362 5.03761 46.7672V48.2863C5.03761 49.2312 5.80629 49.9999 6.75124 49.9999H43.151C44.0959 49.9999 44.8647 49.2312 44.8647 48.2863V46.8297C45.2453 46.6092 45.5026 46.1984 45.5026 45.7276V25.8953C45.5026 25.7036 45.4275 25.5195 45.2936 25.3825ZM16.2083 9.87986C16.2083 9.94813 16.1528 10.0036 16.0845 10.0036H10.6982C10.63 10.0036 10.5745 9.94813 10.5745 9.87986V1.59106C10.5745 1.52278 10.63 1.46732 10.6982 1.46732H16.0845C16.1528 1.46732 16.2083 1.52278 16.2083 1.59106V9.87986ZM29.7715 6.18632C28.6181 7.70881 26.8612 8.58206 24.9511 8.58206C23.041 8.58206 21.2841 7.70881 20.1307 6.18632L18.4568 3.97683C20.3258 5.36364 22.5805 6.11315 24.9511 6.11315C27.3216 6.11315 29.5764 5.36354 31.4455 3.97673L29.7715 6.18632ZM14.2701 21.8804C14.1768 21.6597 14.125 21.4173 14.125 21.1631V19.5056H15.3757L14.2701 21.8804ZM15.4046 22.9201L16.9942 19.5056H19.0691L17.4374 23.0103H15.9723C15.7742 23.0103 15.5836 22.9781 15.4046 22.9201ZM32.6931 23.0103H30.6181L32.2497 19.5056H34.3247L32.6931 23.0103ZM28.9995 23.0103H26.6837L28.3154 19.5056H30.6312L28.9995 23.0103ZM25.0653 23.0103H22.9904L24.622 19.5056H26.6969L25.0653 23.0103ZM21.3718 23.0103H19.0561L20.6877 19.5056H23.0035L21.3718 23.0103ZM34.3327 22.9646L35.7772 19.862V21.163C35.7772 22.0432 35.158 22.7801 34.3327 22.9646ZM35.7772 16.5705V18.0382H14.125V16.5705H35.7772ZM44.0353 34.5479V36.014H5.96476V34.5479H44.0353ZM5.96476 37.4813H12.4024C11.827 38.1776 11.4804 39.0693 11.4804 40.0411C11.4804 41.0129 11.8269 41.9047 12.4024 42.6009H5.96476V37.4813ZM15.5075 42.6009C14.0961 42.6009 12.9477 41.4526 12.9477 40.0411C12.9477 38.6296 14.0961 37.4813 15.5075 37.4813H19.9409L17.5575 42.6009H15.5075ZM20.3442 42.6009H19.176L21.5594 37.4813H23.9962L21.6127 42.6009H20.3442ZM25.6147 37.4813H29.0418L26.6584 42.6009H23.2314L25.6147 37.4813ZM30.6602 37.4813H33.0971L30.7137 42.6009H28.2768L30.6602 37.4813ZM34.7155 37.4813H38.1425L35.7591 42.6009H32.332L34.7155 37.4813ZM39.761 37.4813H42.1979L39.8145 42.6009H37.3776L39.761 37.4813ZM43.8163 37.4813H44.0353V42.6009H41.4329L43.8163 37.4813ZM5.96476 45.5342V44.0682H44.0353V45.5342H5.96476ZM42.3396 24.3716C42.6394 24.7353 42.955 25.0886 43.2879 25.4293L44.0353 26.1941V33.0805H42.3396V24.3716ZM6.71211 25.4293C7.04431 25.0894 7.36028 24.7364 7.66039 24.3714V33.0806H5.96476V26.1942L6.71211 25.4293ZM43.151 48.5327H6.75124C6.61546 48.5327 6.50493 48.4222 6.50493 48.2864V47.0016H43.3973V48.2864C43.3973 48.4221 43.2867 48.5327 43.151 48.5327Z" fill="white" fill-opacity="0.16"/>
</g>
<defs>
<clipPath id="clip0">
<rect width="50" height="50" fill="white"/>
</clipPath>
</defs>
</svg>
