<svg width="51" height="51" viewBox="0 0 51 51" fill="none" xmlns="http://www.w3.org/2000/svg">
<g clip-path="url(#clip0)">
<path d="M20.5055 20.1165C19.6627 20.1165 18.9772 20.802 18.9772 21.6447V25.4024C18.9772 26.2451 19.6628 26.9307 20.5055 26.9307H31.3421C32.1848 26.9307 32.8703 26.2451 32.8703 25.4024V21.6447C32.8703 20.802 32.1848 20.1165 31.3421 20.1165H20.5055ZM20.4715 21.6448C20.4715 21.6261 20.4867 21.6108 20.5055 21.6108H31.3421C31.3608 21.6108 31.3761 21.6261 31.3761 21.6448V25.4025C31.3761 25.4213 31.3608 25.4365 31.3421 25.4365H20.5055C20.4867 25.4365 20.4715 25.4213 20.4715 25.4025V21.6448Z" fill="white" fill-opacity="0.16"/>
<path d="M50.7988 42.7401C50.4931 40.9642 49.9508 39.4198 49.9279 39.3549C49.9146 39.3175 49.8975 39.2818 49.8787 39.2471C49.8907 36.9383 49.8264 16.9158 44.0995 11.1303C41.6757 8.68176 38.4814 7.03041 34.6052 6.22222C32.7258 5.83033 30.9036 5.67891 29.3111 5.62462C29.1 5.62233 28.9064 5.62033 28.7267 5.61834C28.6726 3.88481 27.2465 2.49097 25.5001 2.49097C23.7577 2.49097 22.3342 3.87823 22.2737 5.60619C18.2487 5.67981 12.551 6.28149 8.01016 10.0312C7.69198 10.294 7.64705 10.7649 7.90974 11.083C8.17253 11.4011 8.64332 11.4461 8.9616 11.1834C11.6518 8.96189 14.8373 7.93733 17.7849 7.47052C16.6191 8.31368 15.4844 9.5316 14.4943 11.2893C13.2885 13.43 11.7669 18.9763 11.3296 33.2227C8.42646 34.2563 5.13641 35.7731 2.53272 37.9107C2.60245 33.2258 3.13939 18.9092 7.04039 13.2005C7.27319 12.8598 7.18573 12.3949 6.84504 12.1621C6.50425 11.9293 6.03943 12.0167 5.80663 12.3574C0.871306 19.5799 1.02083 38.628 1.0296 39.4354C1.0297 39.448 1.03109 39.4602 1.03189 39.4727C0.897406 39.8715 0.462976 41.2206 0.201382 42.7401C-0.24281 45.3206 0.0490677 47.0662 1.06905 47.9284C2.17469 48.8629 3.87426 48.6712 6.26537 47.3426C7.47641 46.6698 8.58405 46.0342 9.56139 45.4735C15.2636 42.2022 18.1257 40.5601 25.5001 40.5601C32.8745 40.5601 35.7366 42.2021 41.4387 45.4735C42.4161 46.0341 43.5238 46.6697 44.7347 47.3426C46.1358 48.121 47.2994 48.5091 48.2452 48.5091C48.9136 48.5091 49.4733 48.3153 49.9311 47.9284C50.9511 47.0661 51.243 45.3205 50.7988 42.7401ZM25.5001 3.98522C26.4171 3.98522 27.1702 4.70047 27.231 5.6024C26.0236 5.59035 26.1509 5.59672 23.7697 5.59812C23.8327 4.69828 24.5845 3.98522 25.5001 3.98522ZM15.7963 12.0226C18.2572 7.65401 21.6656 7.12993 23.9633 7.09367C24.1688 7.09526 26.7438 7.09516 26.9517 7.09367C29.2491 7.13083 32.6527 7.65929 35.1106 12.0227C36.0438 13.6794 36.7877 16.9285 37.3218 21.6794C37.3679 22.0895 37.7389 22.3844 38.1477 22.3384C38.5577 22.2922 38.8528 21.9225 38.8066 21.5124C38.2501 16.5613 37.4445 13.1218 36.4123 11.2894C35.4196 9.52691 34.2815 8.307 33.1124 7.46355C36.4726 7.99132 40.1307 9.2451 43.0375 12.1817C45.2871 14.4544 46.927 19.8566 47.7798 27.8045C48.2227 31.9323 48.3426 35.7688 48.3737 37.8339C45.7565 35.7135 42.4675 34.2114 39.5762 33.1894C39.4768 29.9789 39.3108 26.9965 39.0821 24.3177C39.0469 23.9066 38.6843 23.6016 38.2742 23.637C37.8631 23.672 37.5581 24.0337 37.5933 24.4449C37.8066 26.9432 37.9648 29.7109 38.0648 32.6849C37.8328 32.6118 37.6048 32.5419 37.3821 32.4755C32.4609 31.0071 27.9057 30.486 25.5002 30.486C23.0948 30.486 18.5394 31.0068 13.6182 32.4752C13.3653 32.5507 13.1056 32.6306 12.8408 32.7146C13.1941 22.1172 14.2389 14.7875 15.7963 12.0226ZM48.9663 46.7872C48.4151 47.2529 47.1701 46.9862 45.4606 46.0363C44.2586 45.3685 43.1555 44.7356 42.1824 44.1774C36.2503 40.7741 33.2728 39.0658 25.5002 39.0658C17.7276 39.0658 14.75 40.7741 8.81795 44.1774C7.84479 44.7356 6.74173 45.3685 5.53976 46.0363C3.83023 46.9863 2.58532 47.2528 2.03404 46.7872C0.995329 45.9098 1.6264 42.3553 2.42633 40.0112C8.17632 34.338 20.2623 31.9801 25.5002 31.9801C30.738 31.9801 42.824 34.338 48.574 40.0112C49.374 42.3555 50.005 45.9098 48.9663 46.7872Z" fill="white" fill-opacity="0.16"/>
</g>
<defs>
<clipPath id="clip0">
<rect width="51" height="51" fill="white"/>
</clipPath>
</defs>
</svg>
