<svg width="51" height="51" viewBox="0 0 51 51" fill="none" xmlns="http://www.w3.org/2000/svg">
<path d="M50.15 23.8H48.297C47.4887 18.9839 43.3245 15.3 38.3112 15.3C33.3625 15.3 29.2196 18.8012 28.26 23.4422C27.4346 22.7503 26.4928 22.3831 25.5 22.3831C24.5081 22.3831 23.5671 22.7503 22.7418 23.4413C21.7931 18.8003 17.7013 15.3 12.8112 15.3C7.4426 15.3 3.03025 19.4234 2.59335 24.6501H0.85C0.37995 24.6501 0 25.0308 0 25.5C0 25.9692 0.37995 26.35 0.85 26.35H2.59335C3.03025 31.5767 7.4426 35.7001 12.8112 35.7001C18.3081 35.7001 22.7868 31.2741 22.9356 25.7797C23.6606 24.6875 24.5633 24.0831 25.5 24.0831C26.4367 24.0831 27.3394 24.6883 28.0644 25.7797C28.2157 31.2741 32.7488 35.7001 38.3112 35.7001C43.9016 35.7001 48.45 31.1245 48.45 25.5H50.15C50.6201 25.5 51 25.1192 51 24.6501C51 24.1809 50.6201 23.8 50.15 23.8ZM12.8112 34.0001C8.09115 34.0001 4.25 30.187 4.25 25.5C4.25 20.8131 8.09115 17 12.8112 17C17.544 17 21.25 20.7341 21.25 25.5C21.25 30.266 17.544 34.0001 12.8112 34.0001ZM38.3112 34.0001C33.5911 34.0001 29.75 30.187 29.75 25.5C29.75 20.8131 33.5911 17 38.3112 17C43.044 17 46.75 20.7341 46.75 25.5C46.75 30.266 43.044 34.0001 38.3112 34.0001Z" fill="white" fill-opacity="0.16"/>
</svg>
