<svg width="50" height="50" viewBox="0 0 50 50" fill="none" xmlns="http://www.w3.org/2000/svg">
<g clip-path="url(#clip0)">
<path d="M47.5888 5.88208H32.8836C31.5546 5.88208 30.4734 6.96372 30.4734 8.29321V19.4133C30.4734 21.7997 29.5438 24.0434 27.8558 25.7314L24.5689 29.0184C23.4003 30.187 23.3997 32.0785 24.5692 33.248C25.735 34.4125 27.6319 34.4125 28.7981 33.2476L30.0376 32.008C30.1994 31.846 30.4734 31.9599 30.4734 32.1888V43.7992C30.4734 45.448 31.8143 46.7894 33.4626 46.7894C34.0076 46.7894 34.5308 46.6443 34.988 46.3722V46.9555C34.988 48.5914 36.3129 50 37.9808 50C39.6254 50 40.9686 48.6689 40.9686 47.0102V45.5911C41.4155 45.8573 41.9372 46.0102 42.494 46.0102C44.1427 46.0102 45.4842 44.6764 45.4842 43.02V42.1556C45.9311 42.4218 46.4527 42.5747 47.0095 42.5747C48.6582 42.5747 49.9997 41.2409 49.9997 39.5844V25.437C49.9997 25.0324 49.6719 24.7045 49.2673 24.7045C48.8627 24.7045 48.5349 25.0324 48.5349 25.437V39.5843C48.5349 40.4321 47.8481 41.1097 47.0095 41.1097C46.1688 41.1097 45.4847 40.4259 45.4842 39.5852C45.4842 39.5848 45.4842 39.5845 45.4842 39.5841V33.1696C45.4842 32.765 45.1564 32.4372 44.7518 32.4372C44.3472 32.4372 44.0194 32.765 44.0194 33.1696L44.0193 43.0198C44.0193 43.8673 43.3326 44.5452 42.4939 44.5452C41.6538 44.5452 40.9703 43.8625 40.9686 43.0228C40.9686 43.0219 40.9687 43.021 40.9687 43.0202V34.0602C40.9687 33.6556 40.6409 33.3278 40.2363 33.3278C39.8317 33.3278 39.5038 33.6556 39.5038 34.0602L39.5036 47.01C39.5036 47.8693 38.7956 48.564 37.9218 48.5338C37.1118 48.5054 36.4528 47.7973 36.4528 46.9553L36.4532 34.8141C36.4532 34.4095 36.1253 34.0817 35.7207 34.0817C35.3162 34.0817 34.9883 34.4095 34.9883 34.8141V43.7915C34.9883 43.794 34.9879 43.7964 34.9879 43.799C34.9879 44.6467 34.3011 45.3244 33.4625 45.3244C32.622 45.3244 31.9381 44.6401 31.9381 43.799V32.1886C31.9381 30.6593 30.0834 29.8889 29.0013 30.9725L27.7624 32.2115C27.1673 32.8058 26.1993 32.8059 25.6045 32.2118C25.0082 31.6157 25.0082 30.6505 25.6045 30.0541L28.8916 26.7671C30.8561 24.8025 31.938 22.1909 31.938 19.4132V17.8839H48.535V22.5084C48.535 22.9129 48.8628 23.2408 49.2674 23.2408C49.672 23.2408 49.9998 22.9129 49.9998 22.5084C49.9998 20.913 49.9998 9.87544 49.9998 8.29312C49.9998 6.96372 48.9183 5.88208 47.5888 5.88208ZM31.9383 8.29331C31.9383 7.77144 32.3624 7.34702 32.8837 7.34702H47.5888C48.1106 7.34702 48.535 7.77153 48.535 8.29331V13.0628H31.9383V8.29331ZM31.9384 16.4193V14.5277H48.535V16.4193H31.9384Z" fill="white" fill-opacity="0.16"/>
<path d="M25.4315 16.7514C24.2657 15.587 22.3688 15.5872 21.2026 16.7517L19.963 17.9914C19.8018 18.153 19.5272 18.04 19.5272 17.8106V11.8795C19.5272 11.4749 19.1994 11.1471 18.7948 11.1471C18.3902 11.1471 18.0624 11.4749 18.0624 11.8795V17.8106C18.0624 19.3399 19.9175 20.1104 20.9992 19.0268L22.2382 17.7877C22.8333 17.1935 23.8014 17.1932 24.3961 17.7874C24.9923 18.3834 24.9925 19.3488 24.3961 19.945L21.109 23.2321C19.1444 25.1967 18.0625 27.8083 18.0625 30.586V32.1153H1.46582V10.4151C1.46582 9.56723 2.15254 8.88969 2.99111 8.88969C3.83193 8.88969 4.51602 9.57348 4.5165 10.4142V10.4153V16.8297C4.5165 17.2343 4.84434 17.5622 5.24893 17.5622C5.65352 17.5622 5.98135 17.2343 5.98135 16.8297V10.417C5.98135 10.4164 5.98144 10.4158 5.98144 10.4152V6.97963C5.98144 6.13197 6.66816 5.45434 7.50684 5.45434C8.34697 5.45434 9.03047 6.13695 9.03213 6.9767C9.03213 6.97758 9.03203 6.97846 9.03203 6.97944V15.9393C9.03203 16.3439 9.35986 16.6717 9.76445 16.6717C10.169 16.6717 10.4969 16.3439 10.4969 15.9393V6.98529C10.4969 6.98334 10.4972 6.98149 10.4972 6.97963V2.9894C10.4972 2.1224 11.2149 1.43432 12.0788 1.46547C12.8889 1.49399 13.5478 2.20209 13.5478 3.04408V6.19428C13.5478 6.19623 13.5476 6.19809 13.5476 6.19994V15.1852C13.5476 15.5898 13.8754 15.9176 14.28 15.9176C14.6846 15.9176 15.0124 15.5898 15.0124 15.1852V6.206C15.0124 6.20405 15.0127 6.20219 15.0127 6.20033C15.0127 5.35268 15.6997 4.67494 16.5382 4.67494C17.3787 4.67494 18.0625 5.35922 18.0625 6.20033V8.95121C18.0625 9.3558 18.3903 9.68363 18.7949 9.68363C19.1995 9.68363 19.5273 9.3558 19.5273 8.95121V6.20033C19.5273 4.55151 18.1864 3.2101 16.5382 3.2101C15.9932 3.2101 15.47 3.35522 15.0127 3.62729V3.04399C15.0127 1.42221 13.7196 0.0573654 12.1307 0.00150607C10.4371 -0.0596267 9.03213 1.29242 9.03213 2.9894V4.40844C8.58525 4.14233 8.06357 3.9894 7.50674 3.9894C5.86123 3.9894 4.5165 5.31957 4.5165 6.97953V7.84399C4.06963 7.57787 3.54795 7.42494 2.99111 7.42494C1.34229 7.42494 0.000976562 8.75873 0.000976562 10.4152V41.7062C0.000976562 43.0357 1.08252 44.1172 2.41201 44.1172H17.1171C18.446 44.1172 19.5272 43.0357 19.5272 41.7062C19.5272 38.2167 19.5272 34.0751 19.5272 30.5861C19.5272 28.1997 20.4568 25.956 22.1448 24.2681L25.4319 20.981C26.5978 19.8149 26.5978 17.9177 25.4315 16.7514ZM17.1171 42.6525H2.41201C1.89023 42.6525 1.46582 42.228 1.46582 41.7063V36.9368H3.78457C4.18916 36.9368 4.51699 36.6089 4.51699 36.2043C4.51699 35.7997 4.18916 35.4719 3.78457 35.4719H1.46582V33.5803H18.0624V35.4719H6.71299C6.3084 35.4719 5.98057 35.7997 5.98057 36.2043C5.98057 36.6089 6.3084 36.9368 6.71299 36.9368H18.0624V41.7063C18.0624 42.228 17.6384 42.6525 17.1171 42.6525Z" fill="white" fill-opacity="0.16"/>
</g>
<defs>
<clipPath id="clip0">
<rect width="50" height="50" fill="white"/>
</clipPath>
</defs>
</svg>
