<svg width="50" height="50" viewBox="0 0 50 50" fill="none" xmlns="http://www.w3.org/2000/svg">
<g clip-path="url(#clip0)">
<path d="M37.5082 25.1C37.494 24.6956 37.156 24.3788 36.7504 24.3938C36.3462 24.4081 36.03 24.7474 36.0443 25.1516L36.7572 45.3784H31.3625L25.7324 13.8864V5.21357H30.7416L31.3617 7.69424C31.8678 9.71807 33.5439 11.1937 35.5623 11.4769L35.9233 21.7198C35.9376 22.124 36.274 22.4409 36.6811 22.426C37.0854 22.4117 37.4016 22.0725 37.3872 21.6683L36.7811 4.46895V0.732422C36.7811 0.32793 36.4532 0 36.0486 0H18.011C17.6065 0 17.2786 0.32793 17.2786 0.732422C17.2786 1.11768 17.5763 1.43281 17.9541 1.46201V3.74873H14.6838V1.45898C15.0444 1.41338 15.3233 1.10537 15.3233 0.732422C15.3233 0.32793 14.9954 0 14.5909 0H13.9514C13.5469 0 13.219 0.32793 13.219 0.732422V4.46885L11.641 49.2418C11.634 49.4404 11.708 49.6333 11.846 49.7763C11.9841 49.9192 12.1742 50 12.373 50H18.6863C19.0411 50 19.3449 49.7457 19.4073 49.3965L21.3164 38.7175C21.3876 38.3192 21.1226 37.9388 20.7243 37.8676C20.3267 37.7964 19.9456 38.0615 19.8744 38.4597L18.6375 45.3783H13.2428L14.4376 11.4767C16.456 11.1936 18.1321 9.71797 18.6381 7.69404L19.2582 5.21348H24.2676V13.8863L20.4776 35.0857C20.4065 35.484 20.6715 35.8645 21.0697 35.9356C21.4678 36.0072 21.8484 35.7418 21.9196 35.3436L25 18.1131L30.5928 49.3965C30.6553 49.7457 30.959 50 31.3138 50H37.6272C37.8259 50 38.016 49.9192 38.1541 49.7763C38.2922 49.6333 38.3662 49.4404 38.3592 49.2418L37.5082 25.1ZM26.7057 3.74863H23.2944V1.46484H26.7057V3.74863ZM28.1705 1.46484H30.5812V3.74863H28.1705V1.46484ZM32.7829 7.33887L32.2516 5.21348H35.3416L35.5097 9.98125C34.1921 9.69746 33.1207 8.68984 32.7829 7.33887ZM35.3162 3.74863H32.0459V1.46484H35.3162V3.74863ZM19.4189 1.46484H21.8295V3.74863H19.4189V1.46484ZM18.3757 46.8433L18.0732 48.5352H13.1316L13.1913 46.8433H18.3757ZM17.2171 7.33887C16.8794 8.68984 15.808 9.69736 14.4903 9.98125L14.6584 5.21357H17.7484L17.2171 7.33887ZM31.9268 48.5352L31.6243 46.8433H36.8088L36.8685 48.5352H31.9268Z" fill="white" fill-opacity="0.16"/>
</g>
<defs>
<clipPath id="clip0">
<rect width="50" height="50" fill="white"/>
</clipPath>
</defs>
</svg>
