<svg width="50" height="50" viewBox="0 0 50 50" fill="none" xmlns="http://www.w3.org/2000/svg">
<g clip-path="url(#clip0)">
<path d="M9.4821 29.0708C9.01676 29.0113 8.64499 29.3331 8.59235 29.7446C8.53981 30.1549 8.81696 30.561 9.28376 30.6208C9.71266 30.6754 10.1031 30.3723 10.1579 29.945C10.2126 29.517 9.91012 29.1256 9.4821 29.0708Z" fill="white" fill-opacity="0.16"/>
<path d="M50.0001 31.2536C50.0001 27.3605 46.8356 24.2188 42.9691 24.2188C40.51 24.2188 40.379 23.9519 37.4172 22.2243C37.7852 21.4869 36.9055 20.7583 36.2503 21.25L36.0302 21.4152L33.4845 19.9301C33.9185 19.1986 33.0265 18.3941 32.3441 18.9063L32.0751 19.108L29.5476 17.6336C30.0538 16.9061 29.1416 16.0343 28.4378 16.5625L28.12 16.8008L22.722 13.652C21.489 12.9326 19.8893 13.2845 19.0834 14.4964L18.8165 14.8977C18.2061 15.8145 18.2066 16.999 18.8176 17.9155L19.1718 18.4469L16.6846 19.6905C15.1286 20.4685 13.2168 19.9789 12.2372 18.5093L10.8472 16.4241C9.36722 14.2045 6.05451 14.3525 4.77745 16.6934C3.01592 19.9229 3.02852 19.8842 2.79483 20.3749C1.66797 22.5954 1.0788 25.7659 1.53867 28.8159L0.0560461 32.5224C-0.0886811 32.8843 0.0553625 33.2976 0.39384 33.4909C4.08936 35.6026 8.29251 36.7189 12.5489 36.7189H42.7155C45.8797 36.7189 48.8456 34.7661 49.9611 31.4938C49.9836 31.4256 49.9997 31.3365 50.0001 31.2536ZM48.4107 30.7196C46.0234 31.569 42.8888 32.0313 40.3246 32.0313C36.4616 32.0313 32.5755 31.8564 28.7104 31.5116L32.0871 27.0094C35.3163 28.2679 38.7111 28.9063 42.1879 28.9063C43.7095 28.9063 44.8335 27.4775 44.4615 25.9899C46.5893 26.5946 48.1917 28.4572 48.4107 30.7196ZM20.1172 15.7636C20.4265 15.2985 20.6615 14.8438 21.3509 14.8438C21.7974 14.8438 21.6116 14.8132 26.7634 17.8183L25.3129 18.9062C24.9677 19.1651 24.8978 19.6548 25.1565 19.9999C25.415 20.3446 25.9049 20.4154 26.2503 20.1563L28.2282 18.6729L30.7185 20.1255L29.2191 21.25C28.8738 21.5089 28.8039 21.9987 29.0627 22.3438C29.3212 22.6884 29.811 22.7592 30.1565 22.5001L32.1832 20.9801L34.6735 22.4328L33.1252 23.5939C32.78 23.8528 32.7101 24.3425 32.9689 24.6876C33.2274 25.0323 33.7172 25.1031 34.0626 24.844L36.1382 23.2874L38.772 24.8237C39.8774 25.4684 41.1535 25.7815 42.1877 25.7815C42.6209 25.7815 42.9689 26.1296 42.9689 26.5628C42.9689 26.996 42.6209 27.344 42.1877 27.344C36.6757 27.344 31.3969 25.6178 27.0239 22.5309L20.8819 18.1957L20.1175 17.049C19.8574 16.6585 19.8572 16.154 20.1172 15.7636ZM6.14914 17.4419C6.86428 16.1307 8.71887 16.0492 9.5471 17.2911L10.9371 19.3763C12.3581 21.508 15.1294 22.2151 17.3835 21.0882L20.2441 19.6579C26.4968 24.0711 27.6194 25.0159 30.6053 26.3814L26.8882 31.3373C25.9659 31.242 25.0455 31.136 24.1269 31.0214C23.8724 29.6148 23.11 28.4244 22.0958 27.6138C20.6525 26.4587 19.0386 25.5524 17.2995 24.9203L4.59103 20.2985L6.14914 17.4419ZM42.7156 35.1563H12.5489C8.79046 35.1563 5.07599 34.2266 1.76308 32.4621L2.84346 29.7612L6.1674 30.2052C6.5965 30.2623 6.9882 29.9605 7.04514 29.5342C7.10227 29.1065 6.80187 28.7135 6.37414 28.6564L3.0334 28.2102C2.76719 26.0094 3.07373 23.7614 3.91075 21.7137L16.7658 26.3887C18.3447 26.9626 19.8095 27.7852 21.1201 28.8342C21.7291 29.3208 22.2161 30.0022 22.4686 30.8041C22.4586 30.8027 12.4864 29.467 12.3958 29.467C11.9644 29.467 11.6151 29.8168 11.6151 30.2482C11.6151 30.6484 11.9164 30.9783 12.3043 31.024C22.8703 32.4339 29.7147 33.5938 40.3248 33.5938C42.6774 33.5938 45.3904 33.2328 47.676 32.5902C46.5587 34.1721 44.7265 35.1563 42.7156 35.1563Z" fill="white" fill-opacity="0.16"/>
</g>
<defs>
<clipPath id="clip0">
<rect width="50" height="50" fill="white"/>
</clipPath>
</defs>
</svg>
