<svg width="50" height="50" viewBox="0 0 50 50" fill="none" xmlns="http://www.w3.org/2000/svg">
<g clip-path="url(#clip0)">
<path d="M31.4712 43.5285C32.7672 43.5285 33.8216 42.4742 33.8216 41.1782V36.3248C33.8216 36.1305 33.7445 35.9442 33.6071 35.8069L30.3713 32.5712C30.234 32.4338 30.0477 32.3567 29.8535 32.3567H20.1464C19.9522 32.3567 19.7659 32.4338 19.6286 32.5712L16.3928 35.8069C16.2554 35.9442 16.1783 36.1305 16.1783 36.3248V41.1782C16.1783 42.4742 17.2326 43.5285 18.5286 43.5285H31.4712ZM17.6432 41.1782V36.6281L20.4499 33.8214H29.5502L32.3568 36.6281V41.1782C32.3568 41.6665 31.9595 42.0636 31.4712 42.0636H18.5287C18.0404 42.0636 17.6432 41.6665 17.6432 41.1782Z" fill="white" fill-opacity="0.16"/>
<path d="M45.1465 41.1783C45.1465 41.1782 45.1465 41.1782 45.1465 41.1783V23.3821C45.1465 16.9712 40.7117 11.5774 34.7491 10.1051C36.1465 9.08877 37.0573 7.44219 37.0573 5.58594C37.0573 2.50576 34.5515 0 31.4714 0H18.5286C15.4485 0 12.9427 2.50586 12.9427 5.58594C12.9427 7.44033 13.8518 9.08564 15.2469 10.1021C13.5178 10.5269 11.8858 11.289 10.4236 12.3666C10.098 12.6065 10.0286 13.0651 10.2686 13.3907C10.4122 13.5855 10.634 13.6887 10.8587 13.6887C11.0096 13.6887 11.1619 13.6422 11.2927 13.5458C13.4001 11.9927 15.9022 11.1718 18.5286 11.1718H19.414V14.6779C18.4757 14.9865 17.7962 15.8705 17.7962 16.9107C17.7962 18.2066 18.8505 19.261 20.1464 19.261C21.4423 19.261 22.4967 18.2067 22.4967 16.9107C22.4967 15.8705 21.8171 14.9865 20.8788 14.6779V11.1718H29.121V14.6779C28.1827 14.9865 27.5031 15.8705 27.5031 16.9107C27.5031 18.2066 28.5574 19.261 29.8534 19.261C31.1494 19.261 32.2036 18.2067 32.2036 16.9107C32.2036 15.8705 31.5241 14.9865 30.5858 14.6779V11.1718H31.4712C38.2039 11.1718 43.6814 16.6493 43.6814 23.382V40.4458H41.1781C40.7736 40.4458 40.4457 40.7737 40.4457 41.1782C40.4457 41.5827 40.7736 41.9106 41.1781 41.9106H43.6816V42.796C43.6816 43.2841 43.2847 43.6812 42.7967 43.6815C42.7966 43.6815 42.7964 43.6815 42.7962 43.6815H37.9427C37.9426 43.6815 37.9424 43.6815 37.9422 43.6815C37.4545 43.6812 37.0577 43.2847 37.0572 42.797V18.5285C37.0572 18.124 36.7293 17.7961 36.3248 17.7961C35.9203 17.7961 35.5924 18.124 35.5924 18.5285V42.796V42.7979V44.414C35.5924 44.9021 35.1954 45.2991 34.7074 45.2994C34.7072 45.2994 34.7071 45.2994 34.7069 45.2994H15.293C15.2929 45.2994 15.2927 45.2994 15.2925 45.2994C14.8044 45.2991 14.4075 44.9021 14.4075 44.414V42.798C14.4075 42.7974 14.4076 42.7967 14.4076 42.7961V18.5285C14.4076 18.124 14.0797 17.7961 13.6752 17.7961C13.2707 17.7961 12.9428 18.124 12.9428 18.5285V42.797C12.9423 43.2847 12.5456 43.6812 12.0578 43.6815C12.0576 43.6815 12.0575 43.6815 12.0573 43.6815H7.20381C7.20361 43.6815 7.20352 43.6815 7.20332 43.6815C6.71523 43.6812 6.31836 43.2842 6.31836 42.796V41.9106H8.82168C9.22617 41.9106 9.5541 41.5827 9.5541 41.1782C9.5541 40.7737 9.22617 40.4458 8.82168 40.4458H6.31836V23.382C6.31836 20.4632 7.36465 17.6383 9.26435 15.4277C9.52803 15.1209 9.49307 14.6585 9.18633 14.3948C8.87949 14.1313 8.41728 14.1661 8.15342 14.4729C6.02549 16.949 4.85352 20.113 4.85352 23.382V41.1782V41.1783V41.1784V42.7962C4.85352 43.8364 5.53311 44.7205 6.47139 45.0291V47.6498C6.47139 48.0543 6.79932 48.3822 7.20381 48.3822H12.0573C12.4618 48.3822 12.7897 48.0543 12.7897 47.6498V45.0291C12.8629 45.0051 12.9345 44.9774 13.0043 44.9466C13.1907 45.7478 13.7875 46.3927 14.5605 46.6469V49.2675C14.5605 49.672 14.8885 49.9999 15.293 49.9999H34.707C35.1115 49.9999 35.4394 49.672 35.4394 49.2675V46.6468C36.2125 46.3926 36.8094 45.7477 36.9957 44.9465C37.0655 44.9773 37.1371 45.0049 37.2102 45.029V47.6497C37.2102 48.0542 37.5382 48.3821 37.9427 48.3821H42.7962C43.2007 48.3821 43.5286 48.0542 43.5286 47.6497V45.029C44.4669 44.7204 45.1465 43.8363 45.1465 42.7961V41.1783ZM20.1465 17.7961C19.6583 17.7961 19.2611 17.3989 19.2611 16.9106C19.2611 16.4225 19.6583 16.0253 20.1465 16.0253C20.6347 16.0253 21.0319 16.4225 21.0319 16.9106C21.0319 17.3989 20.6347 17.7961 20.1465 17.7961ZM29.8535 17.7961C29.3653 17.7961 28.9681 17.3989 28.9681 16.9106C28.9681 16.4225 29.3652 16.0253 29.8535 16.0253C30.3417 16.0253 30.7389 16.4225 30.7389 16.9106C30.739 17.3989 30.3417 17.7961 29.8535 17.7961ZM18.5286 1.46475H31.4713C33.4936 1.46475 35.1792 2.92949 35.5259 4.85342H29.8535C27.7769 4.85342 25.9626 5.99336 25 7.67949C24.0374 5.99336 22.2231 4.85342 20.1465 4.85342H14.474C14.8208 2.92949 16.5063 1.46475 18.5286 1.46475ZM20.1465 8.08916C19.742 8.08916 19.4141 8.41709 19.4141 8.82158V9.70693H18.5287C16.5063 9.70693 14.8208 8.24228 14.4741 6.31826H20.1465C22.1688 6.31826 23.8544 7.78291 24.2011 9.70693H20.8789V8.82158C20.8789 8.41699 20.551 8.08916 20.1465 8.08916ZM29.8535 8.08916C29.449 8.08916 29.1211 8.41709 29.1211 8.82158V9.70693H25.7989C26.1457 7.78291 27.8312 6.31826 29.8535 6.31826H35.526C35.1792 8.24228 33.4936 9.70693 31.4714 9.70693H30.5859V8.82158C30.5859 8.41699 30.258 8.08916 29.8535 8.08916ZM7.93623 46.9173V45.1465H11.3249V46.9173H7.93623ZM16.0254 48.5351V46.7643H33.9746V48.5351H16.0254ZM38.6751 46.9173V45.1465H42.0638V46.9173H38.6751Z" fill="white" fill-opacity="0.16"/>
</g>
<defs>
<clipPath id="clip0">
<rect width="50" height="50" fill="white"/>
</clipPath>
</defs>
</svg>
