<svg width="50" height="50" viewBox="0 0 50 50" fill="none" xmlns="http://www.w3.org/2000/svg">
<g clip-path="url(#clip0)">
<path d="M47.8678 20.0098L41.1244 6.40528C40.9822 6.11843 40.7644 5.8757 40.4945 5.70338L32.4041 0.539057C31.4456 -0.0728424 30.2074 -0.0853482 29.2499 0.507153C26.676 2.09943 23.9189 2.05138 20.8211 0.35984C19.8801 -0.153983 18.7283 -0.115185 17.8151 0.461167L16.4197 1.34179C16.418 1.34278 16.4165 1.34386 16.4149 1.34485L9.51212 5.70101C9.23867 5.87363 9.01819 6.11804 8.87462 6.40774L2.1324 20.0098C1.84526 20.589 2.06012 21.2939 2.62131 21.6146L9.98045 25.8198V48.8189C9.98045 49.4702 10.5103 50 11.1616 50H38.8386C39.4899 50 40.0198 49.4702 40.0198 48.8189V40.9345C40.0198 40.5266 39.6891 40.1959 39.2812 40.1959C38.8734 40.1959 38.5427 40.5266 38.5427 40.9345V48.523H11.4575V16.6167C11.4575 16.2089 11.1269 15.8782 10.719 15.8782C10.3111 15.8782 9.98045 16.2089 9.98045 16.6167V24.1187L3.5622 20.4511L10.1981 7.06366C10.2211 7.01708 10.2566 6.97779 10.3005 6.95012L16.3004 3.16361C16.6387 4.38573 17.234 5.52997 18.0543 6.51832C18.2003 6.69439 18.4109 6.78518 18.623 6.78518C18.7892 6.78518 18.9564 6.72945 19.0942 6.61492C19.4082 6.35437 19.4514 5.8888 19.1909 5.57497C18.4076 4.63103 17.8689 3.5183 17.6166 2.333L18.6033 1.71027C18.634 1.69087 18.6654 1.67285 18.6971 1.65592C18.8908 3.04052 19.5309 4.31799 20.5448 5.31126C21.7418 6.48396 23.3242 7.12983 25.0002 7.12983C26.6624 7.12983 28.2354 6.49302 29.4293 5.33677C30.4619 4.3367 31.1146 3.04121 31.3068 1.63622C31.4116 1.67374 31.5133 1.72268 31.6094 1.78403L32.3928 2.28406C31.6797 5.75104 28.582 8.31138 25.0002 8.31138C23.6893 8.31138 22.3956 7.96673 21.2589 7.31486C20.905 7.11191 20.4537 7.23421 20.2509 7.58802C20.0479 7.94182 20.1703 8.39321 20.524 8.59606C21.8841 9.37605 23.4319 9.78835 25.0002 9.78835C29.0933 9.78835 32.6577 6.99148 33.7097 3.12461L39.6997 6.94815C39.7431 6.97592 39.7781 7.01491 39.801 7.061L46.438 20.4509L40.0198 24.1185V16.6165C40.0198 16.2087 39.6891 15.878 39.2812 15.878C38.8734 15.878 38.5427 16.2087 38.5427 16.6165V37.9803C38.5427 38.3882 38.8734 38.7189 39.2812 38.7189C39.6891 38.7189 40.0198 38.3882 40.0198 37.9803V25.8198L47.3789 21.6146C47.9401 21.2939 48.155 20.589 47.8678 20.0098ZM25.0001 5.65276C23.7129 5.65276 22.4977 5.15676 21.5784 4.25615C20.8621 3.55434 20.3888 2.6681 20.2017 1.70308C23.6162 3.53898 26.827 3.6147 29.7514 1.9276C29.2324 4.08097 27.3075 5.65276 25.0001 5.65276Z" fill="white" fill-opacity="0.16"/>
</g>
<defs>
<clipPath id="clip0">
<rect width="50" height="50" fill="white"/>
</clipPath>
</defs>
</svg>
