<svg width="50" height="50" viewBox="0 0 50 50" fill="none" xmlns="http://www.w3.org/2000/svg">
<g clip-path="url(#clip0)">
<path d="M38.4105 21.7337H37.1569C36.5889 19.3851 35.423 17.2676 33.8296 15.5518V10.3449C33.8296 9.33857 33.011 8.51992 32.0046 8.51992H31.8735V4.19209C31.8736 1.88057 29.993 0 27.6815 0H19.6146C18.5703 0 17.5697 0.386328 16.7972 1.08799C16.4978 1.35996 16.4754 1.82314 16.7474 2.12256C17.0193 2.42207 17.4825 2.44424 17.782 2.17236C18.2842 1.71611 18.9351 1.46484 19.6145 1.46484H20.7219V8.51992H16.8872V4.4875C16.8872 4.08291 16.5593 3.75508 16.1547 3.75508C15.7501 3.75508 15.4223 4.08291 15.4223 4.4875V8.51992H15.2912C14.2848 8.51992 13.4662 9.33857 13.4662 10.3449V15.5518C11.1619 18.0332 9.75024 21.3547 9.75024 25.0001C9.75024 28.6455 11.1618 31.967 13.4662 34.4484V39.6553C13.4662 40.6616 14.2848 41.4803 15.2912 41.4803H15.4223V45.808C15.4223 48.1196 17.3029 50.0002 19.6145 50.0002H27.6814C29.3714 50.0002 30.888 48.9939 31.5452 47.4367C31.7024 47.0641 31.5278 46.6344 31.1551 46.4771C30.7825 46.3199 30.3528 46.4944 30.1956 46.8672C29.768 47.8804 28.7811 48.5352 27.6815 48.5352H26.5741V41.4801H30.4088V44.2359C30.4088 44.6405 30.7367 44.9684 31.1413 44.9684C31.5458 44.9684 31.8737 44.6405 31.8737 44.2359V41.4801H32.0048C33.0112 41.4801 33.8298 40.6614 33.8298 39.6551V34.4482C35.4232 32.7324 36.5891 30.6149 37.1571 28.2663H38.4107C39.4249 28.2663 40.2501 27.4411 40.2501 26.4269V23.573C40.2499 22.5589 39.4248 21.7337 38.4105 21.7337ZM30.4087 4.19209V8.51992H26.574V1.46484H27.6814C29.1853 1.46484 30.4087 2.68828 30.4087 4.19209ZM22.1868 1.46484H25.1092V8.51992H22.1868V1.46484ZM15.2913 9.98477H32.0047C32.2033 9.98477 32.3649 10.1463 32.3649 10.3449V14.1847C29.9791 12.258 26.9462 11.1024 23.648 11.1024C20.3498 11.1024 17.3168 12.2581 14.9311 14.1847V10.3449C14.9311 10.1463 15.0926 9.98477 15.2913 9.98477ZM23.648 12.5672C30.5035 12.5672 36.0808 18.1444 36.0808 25C36.0808 31.8556 30.5036 37.4328 23.648 37.4328C16.7924 37.4328 11.2152 31.8555 11.2152 25C11.2152 18.1445 16.7925 12.5672 23.648 12.5672ZM16.8872 45.8078V41.4801H20.7219V48.5352H19.6145C18.1107 48.5352 16.8872 47.3117 16.8872 45.8078ZM25.1092 48.5352H22.1868V41.4801H25.1092V48.5352ZM32.0047 40.0152H15.2913C15.0927 40.0152 14.9311 39.8537 14.9311 39.6551V35.8153C17.3168 37.742 20.3498 38.8976 23.648 38.8976C26.9462 38.8976 29.9791 37.7419 32.3649 35.8153V39.6551C32.3649 39.8537 32.2033 40.0152 32.0047 40.0152ZM38.7851 26.4269C38.7851 26.6334 38.617 26.8015 38.4105 26.8015H37.429C37.5056 26.2116 37.5456 25.6104 37.5456 25C37.5456 24.3896 37.5056 23.7884 37.429 23.1985H38.4105C38.617 23.1985 38.7851 23.3666 38.7851 23.5731V26.4269Z" fill="white" fill-opacity="0.16"/>
<path d="M24.3804 17.9797C24.3804 17.5751 24.0526 17.2473 23.648 17.2473C23.2434 17.2473 22.9156 17.5751 22.9156 17.9797V18.5033C22.9156 18.9079 23.2434 19.2357 23.648 19.2357C24.0526 19.2357 24.3804 18.9079 24.3804 18.5033V17.9797Z" fill="white" fill-opacity="0.16"/>
<path d="M30.1447 24.2676C29.7401 24.2676 29.4122 24.5954 29.4122 25C29.4122 25.4046 29.7401 25.7324 30.1447 25.7324H30.6682C31.0728 25.7324 31.4006 25.4046 31.4006 25C31.4006 24.5954 31.0728 24.2676 30.6682 24.2676H30.1447Z" fill="white" fill-opacity="0.16"/>
<path d="M23.648 30.7642C23.2434 30.7642 22.9156 31.092 22.9156 31.4966V32.0201C22.9156 32.4247 23.2434 32.7525 23.648 32.7525C24.0526 32.7525 24.3804 32.4247 24.3804 32.0201V31.4966C24.3804 31.0921 24.0525 30.7642 23.648 30.7642Z" fill="white" fill-opacity="0.16"/>
<path d="M16.628 24.2676C16.2234 24.2676 15.8956 24.5954 15.8956 25C15.8956 25.4046 16.2234 25.7324 16.628 25.7324H17.1515C17.5561 25.7324 17.8839 25.4046 17.8839 25C17.8839 24.5954 17.5561 24.2676 17.1515 24.2676H16.628Z" fill="white" fill-opacity="0.16"/>
<path d="M24.3802 20.8193C24.3802 20.4147 24.0524 20.0869 23.6478 20.0869C23.2432 20.0869 22.9154 20.4147 22.9154 20.8193V24.2675H21.6306C21.226 24.2675 20.8982 24.5953 20.8982 24.9999C20.8982 25.4045 21.226 25.7323 21.6306 25.7323H23.6478C24.0524 25.7323 24.3802 25.4045 24.3802 24.9999V20.8193Z" fill="white" fill-opacity="0.16"/>
<path d="M23.6481 35.5648C29.4735 35.5648 34.2129 30.8254 34.2129 24.9999C34.2129 23.7342 33.9909 22.4953 33.5528 21.3177C33.4119 20.9384 32.99 20.7455 32.611 20.8865C32.2318 21.0274 32.0388 21.4492 32.1798 21.8283C32.5568 22.8421 32.748 23.9092 32.748 25C32.748 30.0178 28.6658 34.1 23.648 34.1C18.6302 34.1 14.5481 30.0177 14.5481 24.9999C14.5481 19.9821 18.6303 15.8999 23.6481 15.8999C26.4957 15.8999 29.1262 17.1966 30.8653 19.4574C31.1117 19.778 31.5716 19.8383 31.8923 19.5914C32.2129 19.3448 32.273 18.8851 32.0263 18.5644C30.0079 15.9401 26.9542 14.4351 23.6481 14.4351C17.8227 14.4351 13.0833 19.1744 13.0833 24.9999C13.0833 30.8254 17.8226 35.5648 23.6481 35.5648Z" fill="white" fill-opacity="0.16"/>
</g>
<defs>
<clipPath id="clip0">
<rect width="50" height="50" fill="white"/>
</clipPath>
</defs>
</svg>
